<svg xmlns="http://www.w3.org/2000/svg" viewBox="0 0 31 31" fill="none">
    <path d="M30.314 14.325A14.867 14.867 0 0 0 15.544 0h-.072a14.87 14.87 0 0 0-13.06 22.002L1.099 29.87a.115.115 0 0 0 .113.13h.023l7.782-1.731a14.875 14.875 0 0 0 6.443 1.466h.425a14.864 14.864 0 0 0 14.43-15.41ZM15.81 27.148h-.351a12.293 12.293 0 0 1-5.665-1.376l-.398-.208-5.278 1.247.974-5.339-.226-.383A12.292 12.292 0 0 1 15.119 2.584h.358a12.287 12.287 0 0 1 .346 24.57l-.013-.005Z" fill="currentColor"/>
    <path d="M10.29 7.69a1.374 1.374 0 0 0-.978.436c-.354.363-1.345 1.238-1.402 3.074-.057 1.837 1.226 3.654 1.405 3.909.18.255 2.454 4.222 6.2 5.83 2.2.949 3.166 1.112 3.791 1.112.258 0 .453-.027.656-.04.686-.042 2.235-.835 2.573-1.697.337-.863.36-1.617.271-1.767-.089-.151-.333-.26-.701-.453-.368-.193-2.173-1.158-2.512-1.294a1.148 1.148 0 0 0-.4-.104.555.555 0 0 0-.445.266c-.301.375-.993 1.191-1.226 1.426a.552.552 0 0 1-.407.19.973.973 0 0 1-.408-.11 9.518 9.518 0 0 1-2.939-1.96 11.267 11.267 0 0 1-1.996-2.655c-.205-.38 0-.576.187-.754.187-.178.387-.424.58-.637a2.53 2.53 0 0 0 .392-.603.69.69 0 0 0-.01-.654c-.09-.19-.754-2.058-1.066-2.808-.254-.64-.555-.662-.82-.681a18.132 18.132 0 0 0-.714-.03h-.032" fill="currentColor"/>
</svg>
